<svg width="29" height="29" viewBox="0 0 29 29" fill="none" xmlns="http://www.w3.org/2000/svg">
<path d="M7.63867 13.707C3.4224 13.707 -0.0078125 17.1372 -0.0078125 21.3535C-0.0078125 25.5698 3.4224 29 7.63867 29C11.8549 29 15.2852 25.5698 15.2852 21.3535C15.2852 17.1372 11.8549 13.707 7.63867 13.707ZM11.0148 20.4249L7.04995 24.3898C6.88411 24.5557 6.66666 24.6387 6.44922 24.6387C6.23178 24.6387 6.01433 24.5557 5.84849 24.3898L4.14927 22.6906C3.81747 22.3588 3.81747 21.8209 4.14927 21.4891C4.48101 21.1573 5.01899 21.1573 5.35079 21.4891L6.44922 22.5875L9.81333 19.2234C10.1451 18.8917 10.683 18.8917 11.0148 19.2234C11.3466 19.5552 11.3466 20.0932 11.0148 20.4249Z" fill="#6045EB"/>
<path d="M22.3652 7.36328C21.896 7.36328 21.5156 6.98288 21.5156 6.51367V0H9.33789C7.93247 0 6.78906 1.1434 6.78906 2.54883V12.0468C7.06898 12.0215 7.35224 12.0078 7.63867 12.0078C10.5346 12.0078 13.127 13.3318 14.8426 15.4062H24.0645C24.5337 15.4062 24.9141 15.7866 24.9141 16.2559C24.9141 16.7251 24.5337 17.1055 24.0645 17.1055H15.9619C16.5047 18.1647 16.8386 19.3185 16.9453 20.5039H24.0645C24.5337 20.5039 24.9141 20.8843 24.9141 21.3535C24.9141 21.8227 24.5337 22.2031 24.0645 22.2031H16.9453C16.6913 25.009 15.1921 27.4608 13.0058 29H26.3301C27.7355 29 28.8789 27.8566 28.8789 26.4512V7.36328H22.3652ZM24.0645 12.0078H11.6035C11.1343 12.0078 10.7539 11.6274 10.7539 11.1582C10.7539 10.689 11.1343 10.3086 11.6035 10.3086H24.0645C24.5337 10.3086 24.9141 10.689 24.9141 11.1582C24.9141 11.6274 24.5337 12.0078 24.0645 12.0078Z" fill="#6045EB"/>
<path d="M23.2188 0.49707V5.66366H28.385L23.2188 0.49707Z" fill="#6045EB"/>
</svg>
