<svg width="60" height="60" viewBox="0 0 60 60" fill="none" xmlns="http://www.w3.org/2000/svg">
<path d="M36.25 60.0004C35.8385 60.0005 35.4334 59.899 35.0705 59.7049C34.7077 59.5109 34.3984 59.2302 34.17 58.8879L29.9125 52.5004H25C24.337 52.5004 23.7011 52.2371 23.2322 51.7682C22.7634 51.2994 22.5 50.6635 22.5 50.0004C22.5 49.3374 22.7634 48.7015 23.2322 48.2327C23.7011 47.7638 24.337 47.5004 25 47.5004H31.25C32.085 47.5004 32.865 47.9179 33.33 48.6129L35.94 52.5279L41.5125 41.3804C41.7132 40.9803 42.0177 40.6413 42.394 40.3988C42.7704 40.1563 43.2049 40.0192 43.6523 40.0019C44.0997 39.9845 44.5435 40.0875 44.9375 40.3001C45.3316 40.5126 45.6613 40.827 45.8925 41.2104L52.665 52.5004H57.5C58.163 52.5004 58.7989 52.7638 59.2678 53.2327C59.7366 53.7015 60 54.3374 60 55.0004C60 55.6635 59.7366 56.2994 59.2678 56.7682C58.7989 57.2371 58.163 57.5004 57.5 57.5004H51.25C50.8186 57.5006 50.3945 57.389 50.019 57.1765C49.6435 56.964 49.3295 56.6579 49.1075 56.2879L43.95 47.6929L38.4875 58.6204C38.0875 59.4179 37.295 59.9429 36.405 59.9979L36.25 60.0004Z" fill="#6045EB"/>
<path d="M22.5 25C29.4036 25 35 19.4036 35 12.5C35 5.59644 29.4036 0 22.5 0C15.5964 0 10 5.59644 10 12.5C10 19.4036 15.5964 25 22.5 25Z" fill="#6045EB"/>
<path d="M17.5 50C17.5 45.865 20.865 42.5 25 42.5H31.25C32.5475 42.5 33.7975 42.8325 34.895 43.4425L37.0425 39.145C38.135 36.9675 40.215 35.54 42.5775 35.16C41.4246 33.5652 39.9103 32.2662 38.1587 31.3693C36.407 30.4724 34.4679 30.0032 32.5 30H12.5C9.18479 30 6.00537 31.317 3.66117 33.6612C1.31696 36.0054 0 39.1848 0 42.5L0 50.625C0 51.66 0.84 52.5 1.875 52.5H17.96C17.6639 51.6994 17.5083 50.8536 17.5 50Z" fill="#6045EB"/>
</svg>
