<svg width="25" height="30" viewBox="0 0 25 30" fill="none" xmlns="http://www.w3.org/2000/svg">
<path d="M18.75 12.5C15.3038 12.5 12.5 9.69625 12.5 6.25V0H6.25C2.80375 0 0 2.80375 0 6.25V23.75C0 27.1963 2.80375 30 6.25 30H18.75C22.1963 30 25 27.1963 25 23.75V12.5H18.75ZM7.5 11.25H10C10.3315 11.25 10.6495 11.3817 10.8839 11.6161C11.1183 11.8505 11.25 12.1685 11.25 12.5C11.25 12.8315 11.1183 13.1495 10.8839 13.3839C10.6495 13.6183 10.3315 13.75 10 13.75H7.5C7.16848 13.75 6.85054 13.6183 6.61612 13.3839C6.3817 13.1495 6.25 12.8315 6.25 12.5C6.25 12.1685 6.3817 11.8505 6.61612 11.6161C6.85054 11.3817 7.16848 11.25 7.5 11.25ZM17.5 23.75H7.5C7.16848 23.75 6.85054 23.6183 6.61612 23.3839C6.3817 23.1495 6.25 22.8315 6.25 22.5C6.25 22.1685 6.3817 21.8505 6.61612 21.6161C6.85054 21.3817 7.16848 21.25 7.5 21.25H17.5C17.8315 21.25 18.1495 21.3817 18.3839 21.6161C18.6183 21.8505 18.75 22.1685 18.75 22.5C18.75 22.8315 18.6183 23.1495 18.3839 23.3839C18.1495 23.6183 17.8315 23.75 17.5 23.75ZM17.5 18.75H7.5C7.16848 18.75 6.85054 18.6183 6.61612 18.3839C6.3817 18.1495 6.25 17.8315 6.25 17.5C6.25 17.1685 6.3817 16.8505 6.61612 16.6161C6.85054 16.3817 7.16848 16.25 7.5 16.25H17.5C17.8315 16.25 18.1495 16.3817 18.3839 16.6161C18.6183 16.8505 18.75 17.1685 18.75 17.5C18.75 17.8315 18.6183 18.1495 18.3839 18.3839C18.1495 18.6183 17.8315 18.75 17.5 18.75ZM15 6.25V0.732501L24.2675 10H18.75C16.6819 10 15 8.31812 15 6.25Z" fill="#6045EB"/>
</svg>
