<svg width="44" height="56" viewBox="0 0 44 56" fill="none" xmlns="http://www.w3.org/2000/svg">
<path d="M21.8272 0C15.1223 0 9.66933 5.45533 9.66933 12.1613C9.66933 18.8697 15.1235 24.3262 21.8272 24.3262C28.5308 24.3262 33.9862 18.8697 33.9862 12.1613C33.9862 5.45533 28.5308 0 21.8272 0ZM31.2223 27.7585C31.6552 29.631 32.3388 33.0353 32.1113 35.0093C33.8998 36.5948 38.5922 41.2685 37.5713 45.8803C37.5643 45.9352 37.0813 48.587 33.7913 49.7128C33.6465 49.7632 33.493 49.7844 33.3399 49.775C33.1868 49.7657 33.037 49.7261 32.8993 49.6585C32.7616 49.5909 32.6387 49.4967 32.5377 49.3812C32.4367 49.2658 32.3596 49.1314 32.3108 48.986C32.2611 48.841 32.2404 48.6876 32.25 48.5346C32.2596 48.3816 32.2993 48.232 32.3668 48.0944C32.4344 47.9567 32.5284 47.8338 32.6435 47.7325C32.7586 47.6313 32.8925 47.5537 33.0377 47.5043C34.9953 46.8347 35.28 45.4463 35.2847 45.4335C35.9823 42.2707 32.4823 38.4312 30.5363 36.7243C28.2077 37.8548 23.8047 40.628 23.6343 43.8037C23.6273 43.9017 23.555 45.3075 25.2385 46.4532C25.4945 46.6272 25.671 46.8958 25.7289 47.2C25.7869 47.5041 25.7217 47.8188 25.5477 48.0748C25.3736 48.3309 25.105 48.5073 24.8009 48.5653C24.4967 48.6233 24.182 48.558 23.926 48.384C21.0478 46.4263 21.2963 43.7337 21.3068 43.6193C21.5717 38.6902 28.014 35.3313 29.8118 34.4867C29.9192 32.7367 29.1923 29.1223 28.6568 27.0807C28.6405 27.0165 28.6522 26.9547 28.6452 26.8905C26.9118 26.4115 25.1223 26.1659 23.324 26.1602H20.3292C18.2642 26.1602 16.2715 26.4752 14.392 27.0503C14.3722 27.1332 14.3675 27.2195 14.3267 27.3C14.301 27.3525 11.7752 32.5955 10.5677 40.614C12.5965 41.174 14.0992 43.0162 14.0992 45.2188C14.0976 46.4898 13.5921 47.7082 12.6934 48.6069C11.7947 49.5056 10.5763 50.0111 9.30533 50.0127C8.03409 50.0114 6.81524 49.506 5.91612 48.6074C5.017 47.7087 4.51102 46.4901 4.50917 45.2188C4.50917 42.952 6.097 41.0562 8.21683 40.5615C9.037 34.9125 10.4673 30.611 11.382 28.2637C4.65267 31.5817 0 38.4965 0 46.4952V54.8333C0 55.1427 0.122917 55.4395 0.341709 55.6583C0.560501 55.8771 0.857247 56 1.16667 56H42.4923C43.1375 56 43.659 55.4622 43.659 54.817V46.4952C43.6567 38.0835 38.5233 30.8478 31.2223 27.7585Z" fill="#6045EB"/>
</svg>
